<mxfile host="app.diagrams.net" modified="2023-10-18T03:27:03.343Z" agent="Mozilla/5.0 (Macintosh; Intel Mac OS X 10_15_7) AppleWebKit/537.36 (KHTML, like Gecko) Chrome/118.0.0.0 Safari/537.36" etag="fWpSPdu_Wts0F_3yc9Wa" version="22.0.4" type="device">
  <diagram id="R2lEEEUBdFMjLlhIrx00" name="Page-1">
    <mxGraphModel dx="2506" dy="949" grid="1" gridSize="10" guides="1" tooltips="1" connect="1" arrows="1" fold="1" page="1" pageScale="1" pageWidth="850" pageHeight="1100" math="0" shadow="0" extFonts="Permanent Marker^https://fonts.googleapis.com/css?family=Permanent+Marker">
      <root>
        <mxCell id="0" />
        <mxCell id="1" parent="0" />
        <mxCell id="TuGaRWVAeb7--JBWP1qy-4" value="" style="endArrow=none;html=1;rounded=0;exitX=0.5;exitY=1;exitDx=0;exitDy=0;entryX=0.5;entryY=1;entryDx=0;entryDy=0;startArrow=ERoneToMany;startFill=0;fontFamily=poppins;fontSource=https%3A%2F%2Ffonts.googleapis.com%2Fcss%3Ffamily%3Dpoppins;fontStyle=0" parent="1" source="TuGaRWVAeb7--JBWP1qy-8" target="TuGaRWVAeb7--JBWP1qy-10" edge="1">
          <mxGeometry width="50" height="50" relative="1" as="geometry">
            <mxPoint x="-451.5" y="265" as="sourcePoint" />
            <mxPoint x="-451" y="185" as="targetPoint" />
          </mxGeometry>
        </mxCell>
        <mxCell id="TuGaRWVAeb7--JBWP1qy-5" value="&lt;span style=&quot;font-size: 40px;&quot;&gt;&lt;i&gt;Shelter Database&lt;/i&gt;&lt;/span&gt;" style="text;html=1;align=center;verticalAlign=middle;resizable=0;points=[];autosize=1;strokeColor=none;fillColor=none;fontFamily=poppins;fontSource=https%3A%2F%2Ffonts.googleapis.com%2Fcss%3Ffamily%3Dpoppins;fontStyle=1" parent="1" vertex="1">
          <mxGeometry x="-440" y="920" width="380" height="60" as="geometry" />
        </mxCell>
        <mxCell id="TuGaRWVAeb7--JBWP1qy-6" value="Animal" style="rounded=0;whiteSpace=wrap;html=1;fontFamily=poppins;fontSource=https%3A%2F%2Ffonts.googleapis.com%2Fcss%3Ffamily%3Dpoppins;fontStyle=1;strokeWidth=2;" parent="1" vertex="1">
          <mxGeometry x="-330" y="252.5" width="120" height="60" as="geometry" />
        </mxCell>
        <mxCell id="TuGaRWVAeb7--JBWP1qy-7" value="GIVE" style="rhombus;whiteSpace=wrap;html=1;fontFamily=poppins;fontSource=https%3A%2F%2Ffonts.googleapis.com%2Fcss%3Ffamily%3Dpoppins;fontStyle=0" parent="1" vertex="1">
          <mxGeometry x="-27.5" y="290" width="80" height="80" as="geometry" />
        </mxCell>
        <mxCell id="TuGaRWVAeb7--JBWP1qy-8" value="Ourtcome Event" style="rounded=0;whiteSpace=wrap;html=1;fontFamily=poppins;fontSource=https%3A%2F%2Ffonts.googleapis.com%2Fcss%3Ffamily%3Dpoppins;fontStyle=1;strokeWidth=2;" parent="1" vertex="1">
          <mxGeometry x="202.5" y="615" width="120" height="60" as="geometry" />
        </mxCell>
        <mxCell id="TuGaRWVAeb7--JBWP1qy-9" value="Outcome Type" style="rounded=0;whiteSpace=wrap;html=1;fontFamily=poppins;fontSource=https%3A%2F%2Ffonts.googleapis.com%2Fcss%3Ffamily%3Dpoppins;fontStyle=1;strokeWidth=2;" parent="1" vertex="1">
          <mxGeometry x="305" y="105" width="120" height="60" as="geometry" />
        </mxCell>
        <mxCell id="TuGaRWVAeb7--JBWP1qy-10" value="HAVE" style="rhombus;whiteSpace=wrap;html=1;fontFamily=poppins;fontSource=https%3A%2F%2Ffonts.googleapis.com%2Fcss%3Ffamily%3Dpoppins;fontStyle=0" parent="1" vertex="1">
          <mxGeometry x="340" y="410" width="80" height="80" as="geometry" />
        </mxCell>
        <mxCell id="TuGaRWVAeb7--JBWP1qy-11" value="" style="endArrow=none;html=1;rounded=0;exitX=1;exitY=0.5;exitDx=0;exitDy=0;startArrow=ERmandOne;startFill=0;entryX=0.046;entryY=0.454;entryDx=0;entryDy=0;entryPerimeter=0;fontFamily=poppins;fontSource=https%3A%2F%2Ffonts.googleapis.com%2Fcss%3Ffamily%3Dpoppins;fontStyle=0" parent="1" source="TuGaRWVAeb7--JBWP1qy-6" target="TuGaRWVAeb7--JBWP1qy-7" edge="1">
          <mxGeometry width="50" height="50" relative="1" as="geometry">
            <mxPoint x="-60" y="302.5" as="sourcePoint" />
            <mxPoint x="-120" y="283" as="targetPoint" />
          </mxGeometry>
        </mxCell>
        <mxCell id="TuGaRWVAeb7--JBWP1qy-12" value="" style="endArrow=none;html=1;rounded=0;exitX=0;exitY=0.5;exitDx=0;exitDy=0;startArrow=ERmandOne;startFill=0;entryX=1;entryY=0.5;entryDx=0;entryDy=0;fontFamily=poppins;fontSource=https%3A%2F%2Ffonts.googleapis.com%2Fcss%3Ffamily%3Dpoppins;fontStyle=0" parent="1" source="TuGaRWVAeb7--JBWP1qy-8" target="TuGaRWVAeb7--JBWP1qy-7" edge="1">
          <mxGeometry width="50" height="50" relative="1" as="geometry">
            <mxPoint x="87.5" y="365" as="sourcePoint" />
            <mxPoint x="197.5" y="365" as="targetPoint" />
          </mxGeometry>
        </mxCell>
        <mxCell id="TuGaRWVAeb7--JBWP1qy-13" value="" style="endArrow=none;html=1;rounded=0;exitX=0.25;exitY=1;exitDx=0;exitDy=0;startArrow=ERmandOne;startFill=0;entryX=0.5;entryY=0;entryDx=0;entryDy=0;fontFamily=poppins;fontSource=https%3A%2F%2Ffonts.googleapis.com%2Fcss%3Ffamily%3Dpoppins;fontStyle=0" parent="1" source="TuGaRWVAeb7--JBWP1qy-9" target="TuGaRWVAeb7--JBWP1qy-10" edge="1">
          <mxGeometry width="50" height="50" relative="1" as="geometry">
            <mxPoint x="197.5" y="439.38" as="sourcePoint" />
            <mxPoint x="307.5" y="439.38" as="targetPoint" />
          </mxGeometry>
        </mxCell>
        <mxCell id="TuGaRWVAeb7--JBWP1qy-14" value="" style="endArrow=none;html=1;rounded=0;fontFamily=poppins;fontSource=https%3A%2F%2Ffonts.googleapis.com%2Fcss%3Ffamily%3Dpoppins;fontStyle=0;entryX=0.617;entryY=0.983;entryDx=0;entryDy=0;entryPerimeter=0;" parent="1" source="TuGaRWVAeb7--JBWP1qy-16" target="TuGaRWVAeb7--JBWP1qy-9" edge="1">
          <mxGeometry width="50" height="50" relative="1" as="geometry">
            <mxPoint x="917.5" y="18.75" as="sourcePoint" />
            <mxPoint x="917.5" y="-111.25" as="targetPoint" />
          </mxGeometry>
        </mxCell>
        <mxCell id="TuGaRWVAeb7--JBWP1qy-16" value="Outcome Type" style="ellipse;whiteSpace=wrap;html=1;fontFamily=poppins;fontSource=https%3A%2F%2Ffonts.googleapis.com%2Fcss%3Ffamily%3Dpoppins;fontStyle=0" parent="1" vertex="1">
          <mxGeometry x="462.5" y="240" width="110" height="65" as="geometry" />
        </mxCell>
        <mxCell id="TuGaRWVAeb7--JBWP1qy-17" value="" style="endArrow=none;html=1;rounded=0;entryX=1;entryY=0.5;entryDx=0;entryDy=0;fontFamily=poppins;fontSource=https%3A%2F%2Ffonts.googleapis.com%2Fcss%3Ffamily%3Dpoppins;fontStyle=0" parent="1" source="TuGaRWVAeb7--JBWP1qy-19" target="TuGaRWVAeb7--JBWP1qy-9" edge="1">
          <mxGeometry width="50" height="50" relative="1" as="geometry">
            <mxPoint x="1092.5" y="-92.5" as="sourcePoint" />
            <mxPoint x="1092.5" y="-222.5" as="targetPoint" />
          </mxGeometry>
        </mxCell>
        <mxCell id="TuGaRWVAeb7--JBWP1qy-19" value="&lt;u&gt;Outcome Type ID&lt;/u&gt;" style="ellipse;whiteSpace=wrap;html=1;fontFamily=poppins;fontSource=https%3A%2F%2Ffonts.googleapis.com%2Fcss%3Ffamily%3Dpoppins;fontStyle=0;strokeWidth=2;" parent="1" vertex="1">
          <mxGeometry x="542.5" y="105" width="110" height="65" as="geometry" />
        </mxCell>
        <mxCell id="TuGaRWVAeb7--JBWP1qy-20" value="Age upon Outcome" style="ellipse;whiteSpace=wrap;html=1;dashed=1;fontFamily=poppins;fontSource=https%3A%2F%2Ffonts.googleapis.com%2Fcss%3Ffamily%3Dpoppins;fontStyle=0" parent="1" vertex="1">
          <mxGeometry x="347.5" y="782.5" width="120" height="80" as="geometry" />
        </mxCell>
        <mxCell id="TuGaRWVAeb7--JBWP1qy-21" value="" style="endArrow=none;html=1;rounded=0;exitX=1;exitY=0.75;exitDx=0;exitDy=0;entryX=0.5;entryY=0;entryDx=0;entryDy=0;fontFamily=poppins;fontSource=https%3A%2F%2Ffonts.googleapis.com%2Fcss%3Ffamily%3Dpoppins;fontStyle=0" parent="1" source="TuGaRWVAeb7--JBWP1qy-8" target="TuGaRWVAeb7--JBWP1qy-20" edge="1">
          <mxGeometry width="50" height="50" relative="1" as="geometry">
            <mxPoint x="367.5" y="385" as="sourcePoint" />
            <mxPoint x="242.5" y="195" as="targetPoint" />
          </mxGeometry>
        </mxCell>
        <mxCell id="TuGaRWVAeb7--JBWP1qy-22" value="(derived attribute)" style="text;html=1;align=center;verticalAlign=middle;resizable=0;points=[];autosize=1;strokeColor=none;fillColor=none;fontFamily=poppins;fontSource=https%3A%2F%2Ffonts.googleapis.com%2Fcss%3Ffamily%3Dpoppins;fontStyle=0" parent="1" vertex="1">
          <mxGeometry x="347.5" y="870" width="130" height="30" as="geometry" />
        </mxCell>
        <mxCell id="TuGaRWVAeb7--JBWP1qy-23" value="MonthYear" style="ellipse;whiteSpace=wrap;html=1;dashed=1;fontFamily=poppins;fontSource=https%3A%2F%2Ffonts.googleapis.com%2Fcss%3Ffamily%3Dpoppins;fontStyle=0" parent="1" vertex="1">
          <mxGeometry x="522.5" y="702.5" width="105" height="80" as="geometry" />
        </mxCell>
        <mxCell id="TuGaRWVAeb7--JBWP1qy-24" value="" style="endArrow=none;html=1;rounded=0;exitX=1;exitY=0.5;exitDx=0;exitDy=0;entryX=0;entryY=0.5;entryDx=0;entryDy=0;fontFamily=poppins;fontSource=https%3A%2F%2Ffonts.googleapis.com%2Fcss%3Ffamily%3Dpoppins;fontStyle=0" parent="1" source="TuGaRWVAeb7--JBWP1qy-8" target="TuGaRWVAeb7--JBWP1qy-23" edge="1">
          <mxGeometry width="50" height="50" relative="1" as="geometry">
            <mxPoint x="447.5" y="285" as="sourcePoint" />
            <mxPoint x="322.5" y="95" as="targetPoint" />
          </mxGeometry>
        </mxCell>
        <mxCell id="TuGaRWVAeb7--JBWP1qy-25" value="(derived attribute)" style="text;html=1;align=center;verticalAlign=middle;resizable=0;points=[];autosize=1;strokeColor=none;fillColor=none;fontFamily=poppins;fontSource=https%3A%2F%2Ffonts.googleapis.com%2Fcss%3Ffamily%3Dpoppins;fontStyle=0" parent="1" vertex="1">
          <mxGeometry x="510" y="660" width="130" height="30" as="geometry" />
        </mxCell>
        <mxCell id="TuGaRWVAeb7--JBWP1qy-26" value="" style="endArrow=none;html=1;rounded=0;entryX=1;entryY=0;entryDx=0;entryDy=0;fontFamily=poppins;fontSource=https%3A%2F%2Ffonts.googleapis.com%2Fcss%3Ffamily%3Dpoppins;fontStyle=0" parent="1" source="TuGaRWVAeb7--JBWP1qy-27" target="TuGaRWVAeb7--JBWP1qy-8" edge="1">
          <mxGeometry width="50" height="50" relative="1" as="geometry">
            <mxPoint x="502.5" y="263.75" as="sourcePoint" />
            <mxPoint x="387.5" y="215" as="targetPoint" />
          </mxGeometry>
        </mxCell>
        <mxCell id="TuGaRWVAeb7--JBWP1qy-27" value="Outcome Subtype" style="ellipse;whiteSpace=wrap;html=1;fontFamily=poppins;fontSource=https%3A%2F%2Ffonts.googleapis.com%2Fcss%3Ffamily%3Dpoppins;fontStyle=0" parent="1" vertex="1">
          <mxGeometry x="405" y="550" width="110" height="65" as="geometry" />
        </mxCell>
        <mxCell id="TuGaRWVAeb7--JBWP1qy-28" value="" style="endArrow=none;html=1;rounded=0;entryX=0.5;entryY=0;entryDx=0;entryDy=0;fontFamily=poppins;fontSource=https%3A%2F%2Ffonts.googleapis.com%2Fcss%3Ffamily%3Dpoppins;fontStyle=0" parent="1" source="TuGaRWVAeb7--JBWP1qy-30" target="TuGaRWVAeb7--JBWP1qy-8" edge="1">
          <mxGeometry width="50" height="50" relative="1" as="geometry">
            <mxPoint x="367.5" y="203.75" as="sourcePoint" />
            <mxPoint x="252.5" y="155" as="targetPoint" />
          </mxGeometry>
        </mxCell>
        <mxCell id="TuGaRWVAeb7--JBWP1qy-30" value="Outcome Date Time" style="ellipse;whiteSpace=wrap;html=1;fontFamily=poppins;fontSource=https%3A%2F%2Ffonts.googleapis.com%2Fcss%3Ffamily%3Dpoppins;fontStyle=0" parent="1" vertex="1">
          <mxGeometry x="170" y="345" width="110" height="65" as="geometry" />
        </mxCell>
        <mxCell id="TuGaRWVAeb7--JBWP1qy-31" value="" style="endArrow=none;html=1;rounded=0;fontFamily=poppins;fontSource=https%3A%2F%2Ffonts.googleapis.com%2Fcss%3Ffamily%3Dpoppins;fontStyle=0;entryX=0.25;entryY=1;entryDx=0;entryDy=0;" parent="1" source="TuGaRWVAeb7--JBWP1qy-32" target="TuGaRWVAeb7--JBWP1qy-8" edge="1">
          <mxGeometry width="50" height="50" relative="1" as="geometry">
            <mxPoint x="202.5" y="203.75" as="sourcePoint" />
            <mxPoint x="252.5" y="330" as="targetPoint" />
          </mxGeometry>
        </mxCell>
        <mxCell id="TuGaRWVAeb7--JBWP1qy-32" value="&lt;u&gt;Outcome ID&lt;/u&gt;" style="ellipse;whiteSpace=wrap;html=1;fontFamily=poppins;fontSource=https%3A%2F%2Ffonts.googleapis.com%2Fcss%3Ffamily%3Dpoppins;fontStyle=0;strokeWidth=2;" parent="1" vertex="1">
          <mxGeometry x="132.5" y="820" width="110" height="65" as="geometry" />
        </mxCell>
        <mxCell id="TuGaRWVAeb7--JBWP1qy-33" value="" style="endArrow=none;html=1;rounded=0;entryX=0;entryY=1;entryDx=0;entryDy=0;fontFamily=poppins;fontSource=https%3A%2F%2Ffonts.googleapis.com%2Fcss%3Ffamily%3Dpoppins;fontStyle=0" parent="1" source="TuGaRWVAeb7--JBWP1qy-35" target="TuGaRWVAeb7--JBWP1qy-8" edge="1">
          <mxGeometry width="50" height="50" relative="1" as="geometry">
            <mxPoint x="147.5" y="476.25" as="sourcePoint" />
            <mxPoint x="237.5" y="475" as="targetPoint" />
          </mxGeometry>
        </mxCell>
        <mxCell id="TuGaRWVAeb7--JBWP1qy-35" value="Outcome Sex" style="ellipse;whiteSpace=wrap;html=1;fontFamily=poppins;fontSource=https%3A%2F%2Ffonts.googleapis.com%2Fcss%3Ffamily%3Dpoppins;fontStyle=0" parent="1" vertex="1">
          <mxGeometry x="42.5" y="672.5" width="110" height="65" as="geometry" />
        </mxCell>
        <mxCell id="TuGaRWVAeb7--JBWP1qy-36" value="Breed&amp;nbsp;" style="ellipse;whiteSpace=wrap;html=1;fontFamily=poppins;fontSource=https%3A%2F%2Ffonts.googleapis.com%2Fcss%3Ffamily%3Dpoppins;fontStyle=0" parent="1" vertex="1">
          <mxGeometry x="-510" y="390" width="110" height="65" as="geometry" />
        </mxCell>
        <mxCell id="TuGaRWVAeb7--JBWP1qy-37" value="" style="endArrow=none;html=1;rounded=0;exitX=0.727;exitY=0.069;exitDx=0;exitDy=0;fontFamily=poppins;fontSource=https%3A%2F%2Ffonts.googleapis.com%2Fcss%3Ffamily%3Dpoppins;fontStyle=0;exitPerimeter=0;entryX=0;entryY=1;entryDx=0;entryDy=0;" parent="1" source="TuGaRWVAeb7--JBWP1qy-36" target="TuGaRWVAeb7--JBWP1qy-6" edge="1">
          <mxGeometry width="50" height="50" relative="1" as="geometry">
            <mxPoint x="-370" y="369.5" as="sourcePoint" />
            <mxPoint x="-310" y="312.5" as="targetPoint" />
          </mxGeometry>
        </mxCell>
        <mxCell id="TuGaRWVAeb7--JBWP1qy-38" value="Color" style="ellipse;whiteSpace=wrap;html=1;fontFamily=poppins;fontSource=https%3A%2F%2Ffonts.googleapis.com%2Fcss%3Ffamily%3Dpoppins;fontStyle=0" parent="1" vertex="1">
          <mxGeometry x="-350" y="450" width="110" height="65" as="geometry" />
        </mxCell>
        <mxCell id="TuGaRWVAeb7--JBWP1qy-39" value="" style="endArrow=none;html=1;rounded=0;exitX=0.5;exitY=0;exitDx=0;exitDy=0;entryX=0.75;entryY=1;entryDx=0;entryDy=0;fontFamily=poppins;fontSource=https%3A%2F%2Ffonts.googleapis.com%2Fcss%3Ffamily%3Dpoppins;fontStyle=0" parent="1" source="TuGaRWVAeb7--JBWP1qy-38" target="TuGaRWVAeb7--JBWP1qy-6" edge="1">
          <mxGeometry width="50" height="50" relative="1" as="geometry">
            <mxPoint x="-250" y="369.5" as="sourcePoint" />
            <mxPoint x="-190" y="312.5" as="targetPoint" />
          </mxGeometry>
        </mxCell>
        <mxCell id="TuGaRWVAeb7--JBWP1qy-40" value="Name" style="ellipse;whiteSpace=wrap;html=1;fontFamily=poppins;fontSource=https%3A%2F%2Ffonts.googleapis.com%2Fcss%3Ffamily%3Dpoppins;fontStyle=0" parent="1" vertex="1">
          <mxGeometry x="-530" y="255" width="110" height="65" as="geometry" />
        </mxCell>
        <mxCell id="TuGaRWVAeb7--JBWP1qy-41" value="" style="endArrow=none;html=1;rounded=0;exitX=1;exitY=0.5;exitDx=0;exitDy=0;entryX=0;entryY=0.5;entryDx=0;entryDy=0;fontFamily=poppins;fontSource=https%3A%2F%2Ffonts.googleapis.com%2Fcss%3Ffamily%3Dpoppins;fontStyle=0" parent="1" source="TuGaRWVAeb7--JBWP1qy-40" target="TuGaRWVAeb7--JBWP1qy-6" edge="1">
          <mxGeometry width="50" height="50" relative="1" as="geometry">
            <mxPoint x="-420" y="286.25" as="sourcePoint" />
            <mxPoint x="-310" y="279" as="targetPoint" />
          </mxGeometry>
        </mxCell>
        <mxCell id="TuGaRWVAeb7--JBWP1qy-42" value="Sex" style="ellipse;whiteSpace=wrap;html=1;fontFamily=poppins;fontSource=https%3A%2F%2Ffonts.googleapis.com%2Fcss%3Ffamily%3Dpoppins;fontStyle=0" parent="1" vertex="1">
          <mxGeometry x="-210" y="105" width="110" height="65" as="geometry" />
        </mxCell>
        <mxCell id="TuGaRWVAeb7--JBWP1qy-43" value="" style="endArrow=none;html=1;rounded=0;entryX=0.75;entryY=0;entryDx=0;entryDy=0;fontFamily=poppins;fontSource=https%3A%2F%2Ffonts.googleapis.com%2Fcss%3Ffamily%3Dpoppins;fontStyle=0" parent="1" source="TuGaRWVAeb7--JBWP1qy-42" target="TuGaRWVAeb7--JBWP1qy-6" edge="1">
          <mxGeometry width="50" height="50" relative="1" as="geometry">
            <mxPoint x="-130" y="197.5" as="sourcePoint" />
            <mxPoint x="-190" y="253.5" as="targetPoint" />
            <Array as="points">
              <mxPoint x="-210" y="250" />
            </Array>
          </mxGeometry>
        </mxCell>
        <mxCell id="TuGaRWVAeb7--JBWP1qy-44" value="Date Of Birth" style="ellipse;whiteSpace=wrap;html=1;fontFamily=poppins;fontSource=https%3A%2F%2Ffonts.googleapis.com%2Fcss%3Ffamily%3Dpoppins;fontStyle=0" parent="1" vertex="1">
          <mxGeometry x="-530" y="122.5" width="110" height="65" as="geometry" />
        </mxCell>
        <mxCell id="TuGaRWVAeb7--JBWP1qy-45" value="" style="endArrow=none;html=1;rounded=0;exitX=0.96;exitY=0.769;exitDx=0;exitDy=0;entryX=0;entryY=0;entryDx=0;entryDy=0;exitPerimeter=0;fontFamily=poppins;fontSource=https%3A%2F%2Ffonts.googleapis.com%2Fcss%3Ffamily%3Dpoppins;fontStyle=0" parent="1" source="TuGaRWVAeb7--JBWP1qy-44" target="TuGaRWVAeb7--JBWP1qy-6" edge="1">
          <mxGeometry width="50" height="50" relative="1" as="geometry">
            <mxPoint x="-430" y="170.5" as="sourcePoint" />
            <mxPoint x="-320" y="162.5" as="targetPoint" />
          </mxGeometry>
        </mxCell>
        <mxCell id="TuGaRWVAeb7--JBWP1qy-46" value="&lt;u&gt;Animal ID&lt;/u&gt;" style="ellipse;whiteSpace=wrap;html=1;fontFamily=poppins;fontSource=https%3A%2F%2Ffonts.googleapis.com%2Fcss%3Ffamily%3Dpoppins;fontStyle=0;strokeWidth=2;" parent="1" vertex="1">
          <mxGeometry x="-360" y="100" width="110" height="70" as="geometry" />
        </mxCell>
        <mxCell id="TuGaRWVAeb7--JBWP1qy-47" value="" style="endArrow=none;html=1;rounded=0;exitX=0.5;exitY=1;exitDx=0;exitDy=0;entryX=0.432;entryY=-0.021;entryDx=0;entryDy=0;entryPerimeter=0;fontFamily=poppins;fontSource=https%3A%2F%2Ffonts.googleapis.com%2Fcss%3Ffamily%3Dpoppins;fontStyle=0" parent="1" source="TuGaRWVAeb7--JBWP1qy-46" target="TuGaRWVAeb7--JBWP1qy-6" edge="1">
          <mxGeometry width="50" height="50" relative="1" as="geometry">
            <mxPoint x="-230" y="197.74" as="sourcePoint" />
            <mxPoint x="-303" y="253.74" as="targetPoint" />
          </mxGeometry>
        </mxCell>
      </root>
    </mxGraphModel>
  </diagram>
</mxfile>
